# 3ds Max Wavefront OBJ Exporter v0.97b - (c)2007 guruware
# File Created: 27.12.2016  12:08:19


#
# object F_M_003
#

v  -1.96261 72.5 -0.384946 
v  0.000282407 72.5 -0.00144657 
v  1.96312 72.5 0.382303 
v  3.92573 72.5 0.767249 
v  -3.92573 72.5 -0.767249 
v  -1.30574 72.5 1.49841 
v  0.645196 72.5 1.87888 
v  3.01561 72.5 2.6269 
v  1.29819 72.5 3.78275 
v  -0.767249 72.5 3.92573 
v  -2.62687 72.5 3.01564 
v  -3.78274 72.5 1.29822 
# 12 vertices

vn 0.0000 -1.0000 0.0000
vn 0.0000 -1.0000 0.0000
vn 0.0000 -1.0000 0.0000
vn 0.0000 -1.0000 0.0000
vn 0.0000 -1.0000 0.0000
vn 0.0000 -1.0000 0.0000
vn 0.0000 -1.0000 0.0000
vn 0.0000 -1.0000 0.0000
vn 0.0000 -1.0000 0.0000
vn 0.0000 -1.0000 0.0000
vn 0.0000 -1.0000 0.0000
vn 0.0000 -1.0000 0.0000
# 12 normals

g F_M_003
f 10//1 6//1 7//1
f 8//2 9//2 7//2
f 12//3 5//3 1//3
f 7//4 9//4 10//4
f 2//5 7//5 6//5
f 7//6 3//6 8//6
f 2//7 3//7 7//7
f 6//8 11//8 12//8
f 1//9 6//9 12//9
f 10//10 11//10 6//10
f 1//11 2//11 6//11
f 3//12 4//12 8//12
# 12 polygons


#
# object F_M_004
#

v  -3.01561 72.5 -2.6269 
v  -1.29819 72.5 -3.78275 
v  -1.96261 72.5 -0.384946 
v  0.000282407 72.5 -0.00144657 
v  1.96312 72.5 0.382303 
v  3.92573 72.5 0.767249 
v  -3.92573 72.5 -0.767249 
v  1.30602 72.5 -1.49987 
v  -0.644878 72.5 -1.88023 
v  0.767249 72.5 -3.92573 
v  2.62687 72.5 -3.01564 
v  3.78274 72.5 -1.29822 
# 12 vertices

vn 0.0000 -1.0000 0.0000
vn 0.0000 -1.0000 0.0000
vn 0.0000 -1.0000 0.0000
vn 0.0000 -1.0000 0.0000
vn 0.0000 -1.0000 0.0000
vn 0.0000 -1.0000 0.0000
vn 0.0000 -1.0000 0.0000
vn 0.0000 -1.0000 0.0000
vn 0.0000 -1.0000 0.0000
vn 0.0000 -1.0000 0.0000
vn 0.0000 -1.0000 0.0000
vn 0.0000 -1.0000 0.0000
# 12 normals

g F_M_004
f 13//13 21//13 15//13
f 22//14 21//14 14//14
f 24//15 17//15 20//15
f 15//16 21//16 16//16
f 21//17 13//17 14//17
f 21//18 22//18 20//18
f 16//19 21//19 20//19
f 20//20 22//20 23//20
f 24//21 20//21 23//21
f 17//22 24//22 18//22
f 19//23 13//23 15//23
f 16//24 20//24 17//24
# 12 polygons

