# Rhino

v -3.01561 72.5 -2.6269
v -3.01561 72.5 -2.6269
v -3.01561 72.5 -2.6269
v -1.29819 72.5 -3.78275
v -1.29819 72.5 -3.78275
v -1.96261 72.5 -0.384946
v -1.96261 72.5 -0.384946
v -1.96261 72.5 -0.384946
v 0.000282407 72.5 -0.00144657
v 0.000282407 72.5 -0.00144657
v 0.000282407 72.5 -0.00144657
v 1.96312 72.5 0.382303
v 1.96312 72.5 0.382303
v 1.96312 72.5 0.382303
v 3.92573 72.5 0.767249
v -3.92573 72.5 -0.767249
v 1.30602 72.5 -1.49987
v 1.30602 72.5 -1.49987
v 1.30602 72.5 -1.49987
v 1.30602 72.5 -1.49987
v 1.30602 72.5 -1.49987
v 1.30602 72.5 -1.49987
v -0.644878 72.5 -1.88023
v -0.644878 72.5 -1.88023
v -0.644878 72.5 -1.88023
v -0.644878 72.5 -1.88023
v -0.644878 72.5 -1.88023
v -0.644878 72.5 -1.88023
v 0.767249 72.5 -3.92573
v 0.767249 72.5 -3.92573
v 0.767249 72.5 -3.92573
v 2.62687 72.5 -3.01564
v 2.62687 72.5 -3.01564
v 3.78274 72.5 -1.29822
v 3.78274 72.5 -1.29822
v 3.78274 72.5 -1.29822
vn 0 -1 0
vn 0 -1 0
vn 0 -1 0
vn 0 -1 0
vn 0 -1 0
vn 0 -1 0
vn 0 -1 0
vn 0 -1 0
vn 0 -1 0
vn 0 -1 0
vn 0 -1 0
vn 0 -1 0
vn 0 -1 0
vn 0 -1 0
vn 0 -1 0
vn 0 -1 0
vn 0 -1 0
vn 0 -1 0
vn 0 -1 0
vn 0 -1 0
vn 0 -1 0
vn 0 -1 0
vn 0 -1 0
vn 0 -1 0
vn 0 -1 0
vn 0 -1 0
vn 0 -1 0
vn 0 -1 0
vn 0 -1 0
vn 0 -1 0
vn 0 -1 0
vn 0 -1 0
vn 0 -1 0
vn 0 -1 0
vn 0 -1 0
vn 0 -1 0
f 1//1 23//23 6//6
f 29//29 24//24 4//4
f 34//34 12//12 17//17
f 7//7 25//25 9//9
f 26//26 2//2 5//5
f 27//27 30//30 18//18
f 10//10 28//28 19//19
f 20//20 31//31 32//32
f 35//35 21//21 33//33
f 13//13 36//36 15//15
f 16//16 3//3 8//8
f 11//11 22//22 14//14
v -1.96261 72.5 -0.384946
v -1.96261 72.5 -0.384946
v -1.96261 72.5 -0.384946
v 0.000282407 72.5 -0.00144657
v 0.000282407 72.5 -0.00144657
v 0.000282407 72.5 -0.00144657
v 1.96312 72.5 0.382303
v 1.96312 72.5 0.382303
v 1.96312 72.5 0.382303
v 3.92573 72.5 0.767249
v -3.92573 72.5 -0.767249
v -1.30574 72.5 1.49841
v -1.30574 72.5 1.49841
v -1.30574 72.5 1.49841
v -1.30574 72.5 1.49841
v -1.30574 72.5 1.49841
v -1.30574 72.5 1.49841
v 0.645196 72.5 1.87888
v 0.645196 72.5 1.87888
v 0.645196 72.5 1.87888
v 0.645196 72.5 1.87888
v 0.645196 72.5 1.87888
v 0.645196 72.5 1.87888
v 3.01561 72.5 2.6269
v 3.01561 72.5 2.6269
v 3.01561 72.5 2.6269
v 1.29819 72.5 3.78275
v 1.29819 72.5 3.78275
v -0.767249 72.5 3.92573
v -0.767249 72.5 3.92573
v -0.767249 72.5 3.92573
v -2.62687 72.5 3.01564
v -2.62687 72.5 3.01564
v -3.78274 72.5 1.29822
v -3.78274 72.5 1.29822
v -3.78274 72.5 1.29822
vn 0 -1 0
vn 0 -1 0
vn 0 -1 0
vn 0 -1 0
vn 0 -1 0
vn 0 -1 0
vn 0 -1 0
vn 0 -1 0
vn 0 -1 0
vn 0 -1 0
vn 0 -1 0
vn 0 -1 0
vn 0 -1 0
vn 0 -1 0
vn 0 -1 0
vn 0 -1 0
vn 0 -1 0
vn 0 -1 0
vn 0 -1 0
vn 0 -1 0
vn 0 -1 0
vn 0 -1 0
vn 0 -1 0
vn 0 -1 0
vn 0 -1 0
vn 0 -1 0
vn 0 -1 0
vn 0 -1 0
vn 0 -1 0
vn 0 -1 0
vn 0 -1 0
vn 0 -1 0
vn 0 -1 0
vn 0 -1 0
vn 0 -1 0
vn 0 -1 0
f 65//65 48//48 54//54
f 60//60 63//63 55//55
f 70//70 47//47 37//37
f 56//56 64//64 66//66
f 40//40 57//57 49//49
f 58//58 43//43 61//61
f 41//41 44//44 59//59
f 50//50 68//68 71//71
f 38//38 51//51 72//72
f 67//67 69//69 52//52
f 39//39 42//42 53//53
f 45//45 46//46 62//62
