# 3ds Max Wavefront OBJ Exporter v0.97b - (c)2007 guruware
# File Created: 27.12.2016  14:02:24


#
# object F019
#

v  433.64 -131.16 325.043 
v  433.656 -131.02 325.091 
v  433.224 -130.806 325.441 
v  433.29 -130.652 325.441 
v  433.377 -130.508 325.441 
v  433.484 -130.379 325.441 
v  433.612 -130.27 325.441 
v  433.757 -130.186 325.441 
v  433.916 -130.133 325.441 
v  433.286 -131.3 325.42 
v  433.418 -131.3 325.358 
v  433.527 -131.3 325.26 
v  433.689 -130.882 325.137 
v  433.602 -131.3 325.135 
v  434.083 -130.511 325.248 
v  433.639 -131.301 324.994 
v  433.142 -131.3 325.441 
v  434.083 -130.116 325.441 
v  433.591 -130.958 325.247 
v  433.466 -131.016 325.347 
v  433.315 -131.068 325.417 
v  433.439 -131.162 325.349 
v  433.351 -130.913 325.417 
v  433.743 -130.75 325.18 
v  433.55 -131.129 325.247 
v  433.63 -130.811 325.272 
v  433.5 -130.861 325.357 
v  433.401 -130.759 325.419 
v  433.978 -130.338 325.394 
v  433.87 -130.264 325.428 
v  433.961 -130.446 325.33 
v  433.74 -130.338 325.424 
v  433.855 -130.399 325.383 
v  433.844 -130.519 325.311 
v  433.824 -130.631 325.218 
v  433.615 -130.434 325.424 
v  433.734 -130.484 325.377 
v  433.514 -130.663 325.399 
v  433.624 -130.57 325.383 
v  433.73 -130.607 325.312 
v  433.501 -130.523 325.429 
v  433.939 -130.541 325.244 
v  434.083 -130.265 325.418 
v  434.083 -130.401 325.352 
v  433.151 -131.133 325.441 
v  433.178 -130.967 325.441 
# 46 vertices

vn -0.1779 0.1062 -0.9783
vn -0.4767 0.6107 -0.6324
vn -0.4306 0.3701 -0.8232
vn -0.5140 0.5538 -0.6551
vn -0.1017 0.0696 -0.9924
vn -0.5903 0.2080 -0.7799
vn -0.1722 0.3129 -0.9340
vn -0.0742 0.1034 -0.9919
vn -0.0363 0.1126 -0.9930
vn -0.0411 0.3708 -0.9278
vn -0.1863 0.5161 -0.8360
vn -0.1250 0.6808 -0.7217
vn -0.6695 0.1920 -0.7176
vn -0.1390 0.0592 -0.9885
vn -0.8024 0.3036 -0.5137
vn -0.8727 0.2446 -0.4226
vn -0.6813 0.0350 -0.7311
vn -0.1524 0.0433 -0.9874
vn -0.1467 0.0073 -0.9892
vn -0.4551 0.0448 -0.8893
vn -0.0682 0.2029 -0.9768
vn -0.1835 0.0123 -0.9829
vn -0.0864 0.0715 -0.9937
vn -0.3933 0.4385 -0.8081
vn -0.3502 0.4454 -0.8240
vn -0.4279 0.3707 -0.8243
vn -0.6946 0.4505 -0.5609
vn -0.2835 0.1750 -0.9429
vn -0.2480 0.2594 -0.9334
vn -0.3470 0.2190 -0.9120
vn -0.2593 0.2578 -0.9308
vn -0.2330 0.3111 -0.9214
vn -0.0875 0.1031 -0.9908
vn -0.1620 0.3297 -0.9301
vn -0.0674 0.1159 -0.9910
vn -0.3166 0.5074 -0.8014
vn -0.0457 0.1141 -0.9924
vn -0.0159 0.1509 -0.9884
vn -0.3408 0.6362 -0.6921
vn -0.3140 0.6755 -0.6671
vn -0.0774 0.3244 -0.9428
vn -0.0373 0.1112 -0.9931
vn -0.1233 0.6825 -0.7204
vn -0.0951 0.4375 -0.8942
vn -0.1837 0.5199 -0.8342
vn -0.0362 0.5110 -0.8588
vn -0.5998 0.2896 -0.7459
vn -0.1391 0.0594 -0.9885
vn -0.8532 0.0752 -0.5161
vn -0.6937 0.4645 -0.5505
vn -0.4132 0.1468 -0.8987
vn -0.9152 -0.0180 -0.4025
vn -0.4133 0.1472 -0.8986
vn -0.6639 0.1563 -0.7313
vn -0.8699 0.2050 -0.4486
vn -0.6902 0.1211 -0.7135
vn -0.1497 0.0344 -0.9881
vn -0.1485 0.0057 -0.9889
vn -0.4460 0.1044 -0.8889
vn -0.4254 0.0040 -0.9050
vn -0.6682 0.0505 -0.7423
vn -0.4382 0.0718 -0.8960
vn -0.1561 0.0255 -0.9874
vn -0.8030 0.3541 -0.4793
vn -0.9639 0.0968 -0.2479
# 65 normals

g F019
f 38//1 4//1 5//1
f 34//2 35//2 40//2
f 26//3 38//3 39//3
f 40//4 35//4 24//4
f 41//5 6//5 36//5
f 38//6 26//6 27//6
f 32//7 33//7 37//7
f 7//8 32//8 36//8
f 8//9 30//9 32//9
f 30//10 43//10 29//10
f 34//11 33//11 31//11
f 15//12 42//12 31//12
f 19//13 20//13 27//13
f 3//14 4//14 28//14
f 13//15 19//15 26//15
f 25//16 2//16 1//16
f 25//17 12//17 22//17
f 46//18 3//18 23//18
f 10//19 17//19 45//19
f 10//20 21//20 22//20
f 5//21 41//21 38//21
f 28//22 4//22 38//22
f 5//23 6//23 41//23
f 40//24 39//24 37//24
f 40//25 37//25 34//25
f 39//26 40//26 26//26
f 24//27 26//27 40//27
f 39//28 38//28 41//28
f 36//29 39//29 41//29
f 27//30 28//30 38//30
f 36//31 37//31 39//31
f 37//32 36//32 32//32
f 36//33 6//33 7//33
f 30//34 33//34 32//34
f 32//35 7//35 8//35
f 33//36 34//36 37//36
f 43//37 30//37 9//37
f 18//38 43//38 9//38
f 42//39 35//39 34//39
f 31//40 42//40 34//40
f 30//41 29//41 33//41
f 30//42 8//42 9//42
f 31//43 44//43 15//43
f 43//44 44//44 29//44
f 29//45 31//45 33//45
f 44//46 31//46 29//46
f 27//47 26//47 19//47
f 28//48 23//48 3//48
f 14//49 12//49 25//49
f 26//50 24//50 13//50
f 27//51 23//51 28//51
f 1//52 14//52 25//52
f 20//53 23//53 27//53
f 20//54 19//54 25//54
f 2//55 25//55 19//55
f 22//56 20//56 25//56
f 23//57 21//57 46//57
f 45//58 21//58 10//58
f 20//59 21//59 23//59
f 22//60 11//60 10//60
f 12//61 11//61 22//61
f 21//62 20//62 22//62
f 21//63 45//63 46//63
f 13//64 2//64 19//64
f 1//65 16//65 14//65
# 65 polygons

